Coordinates
version=1
nRows=12
nColumns=28
inDegrees=yes

Units are S.I. units (second, meters, Newtons, ...)
Angles are in degrees.

endheader
time	pelvis_tilt	pelvis_list	pelvis_rotation	pelvis_tx	pelvis_ty	pelvis_tz	hip_flexion_r	hip_adduction_r	hip_rotation_r	knee_angle_r	ankle_angle_r	subtalar_angle_r	mtp_angle_r	hip_flexion_l	hip_adduction_l	hip_rotation_l	knee_angle_l	socket_flexion	socket_adduction	socket_rotation	socket_tx	socket_ty	socket_tz	foot_flex	lumbar_extension	lumbar_bending	lumbar_rotation
      0.31250000	      2.06029092	     -1.62700074	     -6.54333428	     -0.42431172	      1.02998163	      0.25650720	     13.10253171	      1.91437732	     -1.55700069	    -65.55422946	      7.65944222	    -15.64103526	     -1.17119496	     -1.30780486	     -2.93661945	     -8.39807151	     -2.12633539	      0.61839046	      4.25526450	     17.66698202	     -0.00212008	     -0.00681070	      0.00048934	     -0.22875588	    -10.77201929	     -1.27018300	      5.30974561
      0.31666667	      2.12513261	     -2.07540167	     -6.34303662	     -0.41852138	      1.03038945	      0.25621601	     13.44608925	      2.30761734	     -1.90868546	    -65.13650842	      8.71728064	    -14.57601415	     -1.38062433	     -2.01479984	     -3.54114847	     -8.33848500	     -1.95939007	      0.42054187	      4.43691920	     17.89022285	     -0.00423859	     -0.00719090	     -0.00092001	     -0.04385923	    -10.82896214	     -0.64001894	      4.99114940
      0.32083333	      2.18942682	     -2.09413277	     -6.23259323	     -0.41376027	      1.03095063	      0.25627413	     13.98498305	      2.35660184	     -1.97489839	    -64.80173926	      8.78204182	    -14.56458075	     -1.38674567	     -2.25881160	     -3.53171224	     -8.37149498	     -2.00971599	      0.45886329	      4.44909954	     17.92368692	     -0.00319527	     -0.00679804	     -0.00094350	      0.00598045	    -11.00248326	     -0.66471991	      4.98276582
      0.32500000	      2.21186380	     -2.51747021	     -6.00694469	     -0.40784291	      1.03132224	      0.25598967	     14.31914855	      2.73306956	     -2.33402879	    -64.24729086	      9.71708243	    -13.75247857	     -1.58383945	     -2.96107389	     -4.04713459	     -8.32374152	     -1.80235042	      0.25586000	      4.54207847	     18.17379871	     -0.00550106	     -0.00715669	     -0.00148962	      0.14150648	    -10.97420243	     -0.10043884	      4.72181361
      0.32916667	      2.27263063	     -2.51977648	     -5.91989262	     -0.40315801	      1.03180540	      0.25604117	     14.85297400	      2.74951290	     -2.38900198	    -63.84865218	      9.78205442	    -13.73987919	     -1.59125406	     -3.19200407	     -4.03949101	     -8.35012580	     -1.85683051	      0.29116010	      4.57355997	     18.20500895	     -0.00445753	     -0.00675162	     -0.00175278	      0.20449540	    -11.15719780	     -0.10960981	      4.71464834
      0.33333333	      2.22875305	     -2.66016129	     -5.72839840	     -0.39731816	      1.03224554	      0.25588876	     15.26040262	      2.86032336	     -2.60535577	    -63.17235937	     10.18136746	    -13.57750329	     -1.60968280	     -3.68770103	     -4.14982407	     -8.33087393	     -1.71771904	      0.19219752	      4.54124798	     18.44192004	     -0.00576285	     -0.00645831	     -0.00119915	      0.58707697	    -11.00804301	      0.06087032	      4.65456027
      0.33750000	      2.28557122	     -2.68029236	     -5.64963684	     -0.39276976	      1.03257972	      0.25594422	     15.80661070	      2.88587504	     -2.68074138	    -62.76129507	     10.28103790	    -13.53637713	     -1.60852575	     -3.92359489	     -4.16650082	     -8.36722596	     -1.75962056	      0.21838339	      4.56421775	     18.46817883	     -0.00485257	     -0.00620983	     -0.00146279	      0.58672867	    -11.20995072	      0.08913475	      4.63658027
      0.34166667	      2.36304303	     -3.39554986	     -5.35797188	     -0.38659213	      1.03288589	      0.25565897	     15.90019967	      3.53314875	     -3.18840830	    -61.87590752	     11.48854214	    -12.21081344	     -1.78806850	     -4.75553774	     -5.19768131	     -8.34954560	     -1.54611405	     -0.07371233	      4.88037475	     18.66674257	     -0.00775955	     -0.00688551	     -0.00403972	      0.62758990	    -11.22718974	      1.03970206	      4.16828864
      0.34583333	      2.39249507	     -3.42625535	     -5.22044905	     -0.38154095	      1.03332862	      0.25570162	     16.30657441	      3.59388722	     -3.27069847	    -61.18773788	     11.63995840	    -12.20909086	     -1.86422133	     -5.08779687	     -5.21923569	     -8.30179021	     -1.51117274	     -0.09112416	      4.85908374	     18.83612813	     -0.00759229	     -0.00645481	     -0.00400056	      0.86093187	    -11.25899480	      1.04879918	      4.15183877
      0.35000000	      2.41175933	     -3.70554501	     -5.02527862	     -0.37606099	      1.03350305	      0.25535189	     16.67829079	      3.77232574	     -3.59648282	    -60.50325282	     12.05744199	    -12.04704733	     -2.05260026	     -5.64359249	     -5.46967117	     -8.31945924	     -1.36170877	     -0.19924179	      4.82097471	     19.04129467	     -0.00894549	     -0.00667500	     -0.00339788	      0.96762495	    -11.30910702	      1.45018644	      4.03683686
      0.35416667	      2.45361302	     -3.72219977	     -4.90817255	     -0.37106076	      1.03389898	      0.25552077	     17.04529913	      3.80332630	     -3.65330186	    -59.72970551	     12.21696363	    -11.98628780	     -2.10781793	     -5.91510495	     -5.53955776	     -8.36508059	     -1.39526446	     -0.19901649	      4.89629040	     19.06355902	     -0.00831334	     -0.00621369	     -0.00413661	      1.05725706	    -11.37734633	      1.43263320	      3.98886233
      0.35833333	      2.45101084	     -3.83244090	     -4.73361186	     -0.36574240	      1.03415882	      0.25546066	     17.39507225	      3.90217833	     -3.80197453	    -58.89806023	     12.49631303	    -11.90923387	     -2.17504806	     -6.31562764	     -5.65206984	     -8.37282213	     -1.31473313	     -0.25784174	      4.88010946	     19.22483036	     -0.00884623	     -0.00597750	     -0.00399654	      1.21906538	    -11.35729557	      1.57751537	      3.92174800
